<svg xmlns="http://www.w3.org/2000/svg" viewBox="0 0 107.846 71.744">
  <defs>
    <style>
      .cls-1 {
        fill: none;
        stroke: #c50000;
        stroke-width: 1.317px;
        fill-rule: evenodd;
      }

      .cls-2 {
        fill: #283491;
      }
    </style>
  </defs>
  <g id="Symbol_6_6" data-name="Symbol 6 – 6" transform="translate(-51.2 -8.433)">
    <g id="newgate1" transform="translate(51.2 9.106)">
      <g id="n" transform="translate(0)">
        <path id="Path_1" data-name="Path 1" class="cls-1" d="M88.177,94.417c5.384,0,10.768,0,13.943-3.68,3.174-3.7,4.139-11.073,5.244-5.578,1.1,5.478,2.33,23.828,2.953,33.186.623,9.375.623,9.741,1.386-2.831.763-12.588,2.27-38.115,3.034-50.686.763-12.588.763-12.205,1.386-5.112s1.868,20.9,3.094,34.7" transform="translate(-88.177 -54.783)"/>
        <path id="Path_2" data-name="Path 2" class="cls-1" d="M137.023,116.545c.984-5.3,1.949-10.59,2.351-13.138.422-2.564.281-2.364.7-.2.4,2.181,1.366,6.344,4.54,8.426s8.558,2.081,11.251,2.081h2.692" transform="translate(-105.983 -76.911)"/>
      </g>
      <path id="e" class="cls-2" d="M163.131,112.509a1.93,1.93,0,0,1-.331.441l-.764.932c-2.471,2.942-4.586,4.388-6.344,4.388a2.828,2.828,0,0,1-2.115-.858,3.015,3.015,0,0,1-.841-2.182c0-2.059,1.5-3.873,4.484-5.442a8.835,8.835,0,0,1,3.847-1.25,1.681,1.681,0,0,1,1.1.368,1.18,1.18,0,0,1,.459.907c0,.834-.56,1.544-1.681,2.108a22.038,22.038,0,0,1-5.6,1.642,5.518,5.518,0,0,0-1.2,2.942c0,1.005.56,1.5,1.656,1.5,1.885,0,4.178-1.765,6.9-5.32.127-.172.255-.27.357-.27C163.105,112.41,163.131,112.459,163.131,112.509Zm-1.5-3.211c0-.368-.2-.539-.611-.539a4.459,4.459,0,0,0-2.5,1.275,17.818,17.818,0,0,0-3.032,3.26,13.423,13.423,0,0,0,4.357-1.79C161.041,110.743,161.627,110.008,161.627,109.3Z" transform="translate(-110.748 -83.013)"/>
      <path id="w" class="cls-2" d="M180.741,112.484c0,.123-.382.564-1.146,1.3a4.172,4.172,0,0,1-2.7,1.569,1.621,1.621,0,0,1-1.35-.809,17.47,17.47,0,0,1-2.573,2.917,3.224,3.224,0,0,1-2.038.809,2.1,2.1,0,0,1-1.5-.588,1.941,1.941,0,0,1-.611-1.446,4.079,4.079,0,0,1,.484-1.741c-1.783,2.525-3.21,3.775-4.229,3.775a1.692,1.692,0,0,1-1.3-.588,2.107,2.107,0,0,1-.51-1.446,5.68,5.68,0,0,1,1.045-2.721l2.981-4.829a5.08,5.08,0,0,0,1.045.123,7.529,7.529,0,0,0,1.172-.123l-4.051,6.374a5.068,5.068,0,0,0-.968,2.206.663.663,0,0,0,.739.76c.535,0,1.35-.564,2.42-1.716a28.246,28.246,0,0,0,3.159-4.29l2.013-3.334c.637.074,1.045.1,1.223.1a4.075,4.075,0,0,0,1.019-.1l-3.745,5.81a6.525,6.525,0,0,0-1.248,2.7c0,.564.306.833.917.833,1.2,0,2.7-1.226,4.433-3.7a5.454,5.454,0,0,1-.1-.932,6.178,6.178,0,0,1,.994-3.187c.662-1.1,1.3-1.667,1.911-1.667.28,0,.433.172.433.539,0,.981-.994,2.721-2.955,5.3a1.332,1.332,0,0,0,1.2.76c.892,0,1.987-.76,3.286-2.3.255-.27.408-.417.484-.417Q180.741,112.41,180.741,112.484Z" transform="translate(-112.792 -83.013)"/>
      <path id="g" class="cls-2" d="M195.118,112.509a9.969,9.969,0,0,1-1.936,2.353,21.177,21.177,0,0,1-5.579,4.118l-.892,1.569a21.491,21.491,0,0,1-5.477,6.643c-1.936,1.5-3.592,2.255-4.993,2.255a1.861,1.861,0,0,1-1.274-.441,1.426,1.426,0,0,1-.51-1.1c0-2.353,2.777-4.731,8.28-7.158,1.2-.515,1.962-.883,2.318-1.054l3.032-5.393a30.983,30.983,0,0,1-2.8,3.26,2.543,2.543,0,0,1-1.656.711,2.018,2.018,0,0,1-1.58-.784,2.924,2.924,0,0,1-.662-1.912c0-1.986,1.35-3.8,4.051-5.418a9.145,9.145,0,0,1,4.229-1.618c.713,0,1.07.392,1.07,1.152a2.339,2.339,0,0,1-.153.735l.994-1.741a2.909,2.909,0,0,0,.841.123,8.272,8.272,0,0,0,1.35-.123c-.076.1-.611.956-1.554,2.574l-4.458,7.379a21.848,21.848,0,0,0,3.771-2.476,22.622,22.622,0,0,0,3.159-3.408c.2-.221.306-.343.382-.343C195.092,112.41,195.118,112.459,195.118,112.509Zm-4.56-2.844a.788.788,0,0,0-.892-.883c-1.07,0-2.5,1.03-4.255,3.113-1.783,2.059-2.675,3.7-2.675,4.976,0,.76.357,1.152,1.045,1.152.713,0,1.911-1.005,3.592-3.064C189.487,112.386,190.557,110.621,190.557,109.665Zm-5.681,10.321c-.229.123-.917.441-2.013.981q-8.178,3.861-8.178,6.987a1.121,1.121,0,0,0,.408.883,1.566,1.566,0,0,0,1.07.368,5.311,5.311,0,0,0,3.821-1.937,36.6,36.6,0,0,0,4.688-6.962A3.461,3.461,0,0,1,184.876,119.985Z" transform="translate(-114.965 -83.013)"/>
      <path id="a" class="cls-2" d="M212.364,112.484c0,.245-.892,1.348-2.624,3.334-1.4,1.642-2.5,2.451-3.312,2.451a1.722,1.722,0,0,1-1.35-.588,2.23,2.23,0,0,1-.51-1.5,4.367,4.367,0,0,1,.561-2.01,21.778,21.778,0,0,1-2.726,3.26,2.813,2.813,0,0,1-1.834.833,1.882,1.882,0,0,1-1.58-.784,2.965,2.965,0,0,1-.662-1.961c0-2.206,1.63-4.143,4.866-5.834a7.8,7.8,0,0,1,3.414-1.152c.739,0,1.121.343,1.121,1.054a2.611,2.611,0,0,1-.153.76l.917-1.667a3.447,3.447,0,0,0,.943.123,6.477,6.477,0,0,0,1.248-.123l-3.159,5.05c-1.1,1.765-1.63,2.917-1.63,3.481q0,.809.688.809c.459,0,1.223-.515,2.267-1.569a31.145,31.145,0,0,0,3.21-3.9c.051-.123.127-.2.178-.2A.118.118,0,0,1,212.364,112.484Zm-4.891-2.844a.747.747,0,0,0-.815-.858c-1.1,0-2.548,1.054-4.331,3.113s-2.675,3.726-2.675,5c0,.76.357,1.128,1.045,1.128.815,0,2.242-1.3,4.28-3.947C206.632,111.92,207.472,110.449,207.472,109.64Z" transform="translate(-119.6 -83.013)"/>
      <path id="t" class="cls-2" d="M221.942,107.571l-.153.245h-2.344l-4,6.57a4.006,4.006,0,0,0-.713,1.912c0,.515.255.76.841.76,1.07,0,2.9-1.814,5.477-5.467.076-.123.153-.2.2-.2a.118.118,0,0,1,.127.123c-.025.025-.076.123-.2.27l-.764,1.005c-2.242,3.015-3.923,4.511-5.044,4.511a1.868,1.868,0,0,1-1.4-.588,1.919,1.919,0,0,1-.56-1.446,5.348,5.348,0,0,1,.943-2.6l3.006-4.854h-1.834l.178-.245h1.809l2.089-3.334a3.6,3.6,0,0,0,2.038,0l-2.038,3.334Z" transform="translate(-122.529 -82.047)"/>
      <path id="e-2" data-name="e" class="cls-2" d="M231.964,112.509a1.477,1.477,0,0,1-.306.441l-.79.932c-2.446,2.942-4.56,4.388-6.344,4.388a2.772,2.772,0,0,1-2.089-.858,3.015,3.015,0,0,1-.841-2.182c0-2.059,1.478-3.873,4.484-5.442a8.834,8.834,0,0,1,3.847-1.25,1.681,1.681,0,0,1,1.1.368,1.18,1.18,0,0,1,.459.907c0,.834-.56,1.544-1.681,2.108a22.382,22.382,0,0,1-5.6,1.642,5.594,5.594,0,0,0-1.223,2.942c0,1.005.56,1.5,1.656,1.5,1.885,0,4.178-1.765,6.9-5.32.153-.172.28-.27.357-.27C231.939,112.41,231.964,112.459,231.964,112.509Zm-1.478-3.211c0-.368-.2-.539-.637-.539a4.408,4.408,0,0,0-2.471,1.275,17.892,17.892,0,0,0-3.057,3.26,13.819,13.819,0,0,0,4.382-1.79C229.9,110.743,230.487,110.008,230.487,109.3Z" transform="translate(-124.119 -83.013)"/>
    </g>
  </g>
</svg>
