<svg xmlns="http://www.w3.org/2000/svg" viewBox="0 0 223.755 147.41">
  <defs>
    <style>
      .cls-1 {
        fill: none;
        stroke: #283491;
        stroke-width: 1.317px;
        fill-rule: evenodd;
      }

      .cls-2 {
        fill: #283491;
      }
    </style>
  </defs>
  <g id="newgate1" transform="translate(-86.177 -62.109)">
    <g id="n" transform="translate(-2 8)">
      <path id="Path_1" data-name="Path 1" class="cls-1" d="M88.177,137.014c11.171,0,22.342,0,28.928-7.635,6.586-7.67,8.587-22.974,10.879-11.573,2.293,11.366,4.835,49.438,6.127,68.853,1.292,19.45,1.292,20.21,2.876-5.873,1.584-26.118,4.71-79.079,6.294-105.163,1.584-26.118,1.584-25.323,2.876-10.606s3.877,43.357,6.419,72" transform="translate(0 0)"/>
      <path id="Path_2" data-name="Path 2" class="cls-1" d="M137.023,132.679c2.042-10.986,4.043-21.972,4.877-27.258.875-5.32.584-4.906,1.459-.415.834,4.526,2.834,13.163,9.42,17.481s17.757,4.318,23.342,4.318h5.585" transform="translate(15.554 4.335)"/>
    </g>
    <path id="e" class="cls-2" d="M174.3,116.777a4,4,0,0,1-.687.916l-1.586,1.933c-5.127,6.1-9.515,9.1-13.162,9.1a5.868,5.868,0,0,1-4.387-1.78,6.255,6.255,0,0,1-1.744-4.527c0-4.272,3.119-8.036,9.3-11.291,3.277-1.729,5.92-2.594,7.982-2.594a3.487,3.487,0,0,1,2.273.763,2.448,2.448,0,0,1,.951,1.882c0,1.729-1.163,3.2-3.489,4.374-2.273,1.221-6.184,2.34-11.629,3.408-1.691,2.441-2.484,4.476-2.484,6.1,0,2.085,1.163,3.1,3.436,3.1,3.911,0,8.669-3.662,14.325-11.037.264-.356.529-.559.74-.559C174.249,116.573,174.3,116.675,174.3,116.777Zm-3.119-6.663c0-.763-.423-1.119-1.269-1.119-1.321,0-3.013.865-5.18,2.645a36.967,36.967,0,0,0-6.29,6.765,27.851,27.851,0,0,0,9.039-3.713C169.968,113.115,171.184,111.589,171.184,110.114Z" transform="translate(20.557 7.203)"/>
    <path id="w" class="cls-2" d="M199.525,116.726c0,.254-.793,1.17-2.379,2.7-2.114,2.187-4.017,3.255-5.6,3.255a3.363,3.363,0,0,1-2.8-1.678,36.249,36.249,0,0,1-5.339,6.053,6.688,6.688,0,0,1-4.229,1.678,4.355,4.355,0,0,1-3.119-1.221,4.028,4.028,0,0,1-1.269-3,8.463,8.463,0,0,1,1-3.611c-3.7,5.239-6.66,7.833-8.774,7.833a3.51,3.51,0,0,1-2.7-1.221,4.371,4.371,0,0,1-1.057-3c0-1.373.687-3.255,2.167-5.646l6.184-10.02a10.539,10.539,0,0,0,2.167.254,15.62,15.62,0,0,0,2.431-.254l-8.4,13.224c-1.321,2.085-2.009,3.611-2.009,4.578a1.375,1.375,0,0,0,1.533,1.577c1.11,0,2.8-1.17,5.022-3.56a58.606,58.606,0,0,0,6.554-8.9l4.176-6.917c1.321.153,2.167.2,2.537.2a8.456,8.456,0,0,0,2.114-.2l-7.77,12.054c-1.744,2.7-2.59,4.578-2.59,5.595,0,1.17.634,1.729,1.9,1.729,2.484,0,5.6-2.543,9.2-7.68a11.317,11.317,0,0,1-.211-1.933A12.817,12.817,0,0,1,190.328,112c1.374-2.289,2.7-3.459,3.964-3.459.581,0,.9.356.9,1.119,0,2.034-2.061,5.646-6.132,10.986a2.763,2.763,0,0,0,2.484,1.577c1.85,0,4.123-1.577,6.819-4.781.529-.559.846-.865,1-.865Q199.525,116.573,199.525,116.726Z" transform="translate(27.631 7.203)"/>
    <path id="g" class="cls-2" d="M217.324,116.777c0,.407-1.321,2.035-4.017,4.883a43.937,43.937,0,0,1-11.576,8.545l-1.85,3.255c-3.383,5.951-7.136,10.579-11.365,13.784-4.017,3.1-7.453,4.679-10.36,4.679a3.862,3.862,0,0,1-2.643-.916,2.959,2.959,0,0,1-1.057-2.289c0-4.883,5.762-9.816,17.179-14.852,2.484-1.068,4.07-1.831,4.81-2.187l6.29-11.19a64.291,64.291,0,0,1-5.814,6.765,5.277,5.277,0,0,1-3.436,1.475,4.188,4.188,0,0,1-3.277-1.628,6.066,6.066,0,0,1-1.374-3.967c0-4.12,2.8-7.884,8.4-11.241,3.7-2.238,6.66-3.357,8.774-3.357,1.48,0,2.22.814,2.22,2.391a4.854,4.854,0,0,1-.317,1.526l2.061-3.611a6.034,6.034,0,0,0,1.744.254,17.163,17.163,0,0,0,2.8-.254c-.159.2-1.269,1.984-3.224,5.341l-9.25,15.31a45.326,45.326,0,0,0,7.823-5.137,46.932,46.932,0,0,0,6.554-7.07c.423-.458.634-.712.793-.712C217.271,116.573,217.324,116.675,217.324,116.777Zm-9.462-5.9a1.634,1.634,0,0,0-1.85-1.831c-2.22,0-5.18,2.136-8.827,6.46-3.7,4.272-5.55,7.68-5.55,10.325,0,1.577.74,2.391,2.167,2.391,1.48,0,3.964-2.085,7.453-6.358C205.643,116.523,207.863,112.86,207.863,110.877ZM196.075,132.29c-.476.254-1.9.916-4.176,2.034q-16.967,8.011-16.968,14.5a2.326,2.326,0,0,0,.846,1.831,3.249,3.249,0,0,0,2.22.763c2.7,0,5.392-1.322,7.929-4.018,2.59-2.7,5.814-7.477,9.726-14.445A7.166,7.166,0,0,1,196.075,132.29Z" transform="translate(35.151 7.203)"/>
    <path id="a" class="cls-2" d="M227.451,116.726c0,.509-1.85,2.8-5.444,6.917-2.907,3.408-5.18,5.086-6.872,5.086a3.573,3.573,0,0,1-2.8-1.221,4.627,4.627,0,0,1-1.057-3.1,9.061,9.061,0,0,1,1.163-4.171A45.186,45.186,0,0,1,206.783,127a5.837,5.837,0,0,1-3.806,1.729A3.9,3.9,0,0,1,199.7,127.1a6.151,6.151,0,0,1-1.374-4.069c0-4.578,3.383-8.6,10.1-12.105,2.907-1.577,5.286-2.391,7.083-2.391,1.533,0,2.326.712,2.326,2.187a5.418,5.418,0,0,1-.317,1.577l1.9-3.459a7.151,7.151,0,0,0,1.956.254,13.437,13.437,0,0,0,2.59-.254l-6.554,10.478c-2.273,3.662-3.383,6.053-3.383,7.222q0,1.678,1.427,1.678c.952,0,2.537-1.068,4.7-3.255a64.617,64.617,0,0,0,6.66-8.087c.106-.254.264-.407.37-.407A.245.245,0,0,1,227.451,116.726Zm-10.149-5.9a1.55,1.55,0,0,0-1.691-1.78c-2.273,0-5.286,2.187-8.986,6.46s-5.55,7.731-5.55,10.376c0,1.577.74,2.34,2.167,2.34,1.691,0,4.652-2.7,8.88-8.189C215.558,115.556,217.3,112.5,217.3,110.826Z" transform="translate(51.189 7.203)"/>
    <path id="t" class="cls-2" d="M231.114,111.155l-.317.509h-4.863l-8.3,13.631a8.312,8.312,0,0,0-1.48,3.967c0,1.068.529,1.577,1.744,1.577,2.22,0,6.026-3.764,11.365-11.342.159-.254.317-.407.423-.407a.245.245,0,0,1,.264.254c-.053.051-.159.254-.423.559l-1.586,2.085c-4.652,6.256-8.14,9.359-10.466,9.359a3.876,3.876,0,0,1-2.907-1.221,3.982,3.982,0,0,1-1.163-3,11.1,11.1,0,0,1,1.956-5.391l6.237-10.071h-3.806l.37-.509h3.753l4.334-6.917a7.476,7.476,0,0,0,4.229,0l-4.229,6.917Z" transform="translate(61.321 4.586)"/>
    <path id="e-2" data-name="e" class="cls-2" d="M243.109,116.777a3.063,3.063,0,0,1-.634.916l-1.639,1.933c-5.074,6.1-9.462,9.1-13.162,9.1a5.752,5.752,0,0,1-4.334-1.78,6.255,6.255,0,0,1-1.744-4.527c0-4.272,3.066-8.036,9.3-11.291,3.277-1.729,5.92-2.594,7.982-2.594a3.487,3.487,0,0,1,2.273.763,2.448,2.448,0,0,1,.951,1.882c0,1.729-1.163,3.2-3.489,4.374-2.326,1.221-6.184,2.34-11.629,3.408q-2.537,3.662-2.537,6.1c0,2.085,1.163,3.1,3.436,3.1,3.912,0,8.669-3.662,14.325-11.037.317-.356.581-.559.74-.559C243.056,116.573,243.109,116.675,243.109,116.777Zm-3.066-6.663c0-.763-.423-1.119-1.321-1.119-1.269,0-3.013.865-5.127,2.645a37.123,37.123,0,0,0-6.343,6.765,28.673,28.673,0,0,0,9.092-3.713C238.827,113.115,240.043,111.589,240.043,110.114Z" transform="translate(66.823 7.203)"/>
  </g>
</svg>
